<?xml version="1.0" encoding="UTF-8"?>
<svg xmlns="http://www.w3.org/2000/svg" xmlns:xlink="http://www.w3.org/1999/xlink" version="1.1" viewBox="0 0 1080 1080">
  <defs>
    <style>
      .cls-1 {
        fill: url(#Degradado_sin_nombre_7-2);
      }

      .cls-2 {
        fill: url(#Degradado_sin_nombre_7);
      }
    </style>
    <linearGradient id="Degradado_sin_nombre_7" data-name="Degradado sin nombre 7" x1="277.35" y1="491.55" x2="673.76" y2="491.55" gradientUnits="userSpaceOnUse">
      <stop offset="0" stop-color="#11eff9"/>
      <stop offset="1" stop-color="#2761ad"/>
    </linearGradient>
    <linearGradient id="Degradado_sin_nombre_7-2" data-name="Degradado sin nombre 7" x1="8.06" y1="540" x2="1071.94" y2="540" xlink:href="#Degradado_sin_nombre_7"/>
  </defs>
  <!-- Generator: Adobe Illustrator 28.7.2, SVG Export Plug-In . SVG Version: 1.2.0 Build 154)  -->
  <g>
    <g id="Capa_1">
      <g>
        <path class="cls-2" d="M502.19,313.76c-15.25,4.48-29.58,11.62-42.34,21.1-11.58,8.61-21.73,18.99-30.07,30.76v.03c-8.27,11.73-14.6,24.7-18.76,38.44l-4.67,15.41,15.64,3.84c13.43,3.3,26.33,8.47,38.32,15.35,3.52,2.05,6.95,4.21,10.22,6.49,3.26,2.28,6.58,4.73,9.72,7.3l2.89,2.4-2.34,2.89-10.85,14.23-8.66,11.54-2.42,3.17-3.09-2.51c-9.13-7.37-19.31-13.33-30.21-17.66-6.25-2.44-12.72-4.32-19.31-5.6-6.4-1.23-12.9-1.87-19.42-1.9h-5.4c-27.26.96-53.14,12.25-72.4,31.57-20.31,20.21-31.71,47.68-31.68,76.33-.03,14.1,2.74,28.07,8.14,41.09,11.03,26.4,32.03,47.37,58.44,58.38,13.11,5.47,27.17,8.34,41.38,8.43,33.36.26,58.47-13.48,79.76-34.83,21.3-21.35,39.68-51.51,58.44-82.62,16.65-27.67,33.96-56.53,55.35-80.63,21.38-24.1,47.1-44.01,79.62-52.66l15.29-4.04-4.44-15.03c-20.96-71.35-95.78-112.2-167.13-91.25Z"/>
        <path class="cls-1" d="M858.51,48.49H221.49c-117.88,0-213.43,95.56-213.43,213.43v731.68c0,25.91,25.43,44.17,49.98,35.89l469.86-158.45c7.85-2.65,16.36-2.65,24.21,0l469.86,158.45c24.55,8.28,49.98-9.98,49.98-35.89V261.92c0-117.88-95.56-213.43-213.43-213.43ZM799.29,671.45c-36.83,36.83-90.32,51.59-140.82,38.84-21.69-5.43-41.84-15.76-58.93-30.18-7.79-6.54-14.89-13.86-21.18-21.84-1.53-1.93-3.06-3.98-4.56-6.12-1.44-2.02-2.89-4.16-4.27-6.38-1.07-1.7-2.11-3.41-3.06-5.05-.95-1.64-1.96-3.49-2.89-5.25l-1.01-1.91,1.1-1.85,20.52-34.63,4.53-7.62,2.54,8.48c1.35,4.54,3.01,8.99,4.96,13.3l.12-.03c1.94,4.33,4.17,8.52,6.67,12.55,2.96,4.8,6.3,9.35,9.98,13.62,3.67,4.25,7.67,8.22,11.95,11.86,9.71,8.18,20.78,14.59,32.7,18.96,54.37,19.83,114.72-6.66,136.93-60.11,22.84-55.04-3.27-118.17-58.31-141.01-13.15-5.46-27.25-8.26-41.48-8.24-32.12,0-56.19,13.56-76.62,34.63-20.43,21.07-38.09,50.67-56.18,81.35-19.33,32.81-39.82,67.53-67.21,94.22-27.39,26.69-62.27,45.62-109.46,45.62-39.2.01-76.8-15.56-104.52-43.29-40.27-40.25-53.87-100.04-34.97-153.75,5.56-15.81,13.8-30.55,24.36-43.57,10.54-13.08,23.23-24.27,37.51-33.1,14.22-8.79,29.83-15.09,46.17-18.61,1.92-.46,4-.87,6.23-1.21l3.55-.55.49-2.42c.26-1.27.61-2.89,1.04-4.88v-.17c16.58-96.39,108.17-161.09,204.56-144.5,72.61,12.49,129.9,68.64,143.86,140.98l1.93,10.13,10.07,2.02c16.27,3.25,31.84,9.37,45.97,18.06,14.32,8.81,27.01,20.01,37.51,33.13,21.6,26.57,33.42,59.75,33.5,93.99.05,39.21-15.53,76.82-43.29,104.52Z"/>
      </g>
    </g>
  </g>
</svg>