<svg width="481" height="95" viewBox="0 0 481 95" fill="none" xmlns="http://www.w3.org/2000/svg">
<path d="M183.327 81.2544H169.657V52.4181C169.657 43.3889 165.471 38.7819 157.602 38.7819C149.734 38.7819 143.933 44.7677 143.933 53.696V81.2544H130.4V28.4832H143.95V36.0496C147.042 30.6606 153.219 27.1296 160.798 27.1296C174.749 27.1296 183.327 36.0496 183.327 51.4513V81.2544Z" fill="#050029"/>
<path d="M231.657 79.388C228.565 81.3553 223.379 82.6247 218.5 82.6247C205.241 82.6247 198.261 75.1761 198.261 60.657V40.1606H186.804V28.4832H229.658V40.1606H211.819V60.5309C211.819 67.2062 214.707 70.7371 220.286 70.7371C223.208 70.7539 226.096 70.0393 228.667 68.669L231.657 79.388Z" fill="#050029"/>
<path d="M292.086 28.4832V81.2544H278.416V73.7974C274.828 79.5898 268.446 82.6248 260.97 82.6248C246.019 82.6248 234.861 70.4682 234.861 54.8814C234.656 39.4797 246.122 26.827 260.97 27.1381C268.446 27.1381 274.828 30.0805 278.416 35.8646V28.5084L292.086 28.4832ZM263.183 38.7819C258.988 38.6726 254.956 40.354 252.119 43.3889C249.283 46.55 247.788 50.6611 247.933 54.873C247.933 63.9947 254.11 70.9558 263.183 70.9558C272.256 70.9558 278.433 64.5832 278.433 54.873C278.433 45.1628 272.051 38.7819 263.183 38.7819Z" fill="#050029"/>
<path d="M318.186 81.2544H304.636V5.26282H318.186V81.2544Z" fill="#050029"/>
<path d="M344.304 81.2544H330.745V28.4832H344.304V81.2544Z" fill="#050029"/>
<path d="M409.679 81.2544H396.009V52.4181C396.009 43.3889 391.823 38.7819 383.946 38.7819C376.068 38.7819 370.276 44.7677 370.276 53.696V81.2544H356.752V28.4832H370.31V36.0496C373.394 30.6606 379.58 27.1296 387.158 27.1296C401.11 27.1296 409.679 36.0496 409.679 51.4513V81.2544Z" fill="#050029"/>
<path d="M457.266 81.2544L435.053 57.5212V81.2544H421.477V5.26282H435.036V51.9305L456.07 28.4832H472.115L448.09 54.7721L473.413 81.2544H457.266Z" fill="#050029"/>
<path d="M198.269 29.1978C205.694 29.2482 211.76 23.3632 211.811 16.0575C211.811 16.0575 211.811 16.0575 211.811 16.0491V13.9725H198.269V29.1978Z" fill="#050029"/>
<path d="M330.754 20.488C338.187 20.5385 344.252 14.6535 344.304 7.33937V5.26282H330.754V20.488Z" fill="#050029"/>
<path d="M95.4567 38.8827C104.726 38.8827 111.074 45.8522 111.074 54.8562C111.194 59.0681 109.613 63.1624 106.683 66.2394C100.497 72.2504 90.5442 72.2504 84.3587 66.2394C81.6247 63.3389 80.0954 59.5305 80.0869 55.5792C79.0788 57.0588 78.0621 58.6057 77.0198 60.2031C75.1317 63.1288 73.0983 66.2057 70.8514 69.2155C76.0287 77.7234 85.4437 82.8349 95.5165 82.6164C111.963 82.6164 124.018 70.6531 124.018 54.873C124.018 39.0929 111.894 27.1296 95.4482 27.1296C63.4185 27.1296 61.5133 70.7876 39.0609 70.7876C34.8404 70.9473 30.7566 69.308 27.8518 66.2814C24.9556 63.196 23.4178 59.1018 23.5801 54.8982C23.5801 45.8774 29.8596 38.9248 39.0268 38.9248C44.6228 38.7987 49.8172 41.7916 52.4401 46.6593L52.7733 46.1549C54.9177 42.8677 57.2928 39.2779 60.0182 35.7637C54.5589 30.1226 46.9381 26.9951 39.0268 27.1549C22.982 26.9531 10.218 39.3115 10.5171 54.8982C10.218 70.4934 23.0248 82.8518 39.0695 82.6416C71.4665 82.6416 73.1581 38.8827 95.4567 38.8827Z" fill="#050029"/>
</svg>
