<svg width="115" height="56" viewBox="0 0 115 56" fill="none" xmlns="http://www.w3.org/2000/svg">
<path d="M85.4567 11.8827C94.7264 11.8827 101.074 18.8522 101.074 27.8562C101.194 32.0681 99.6133 36.1624 96.6829 39.2394C90.4974 45.2504 80.5442 45.2504 74.3587 39.2394C71.6247 36.3389 70.0954 32.5305 70.0869 28.5792C69.0788 30.0588 68.0621 31.6057 67.0198 33.2031C65.1317 36.1288 63.0983 39.2057 60.8514 42.2155C66.0287 50.7234 75.4437 55.8349 85.5165 55.6164C101.963 55.6164 114.018 43.6531 114.018 27.873C114.018 12.0929 101.894 0.129639 85.4482 0.129639C53.4185 0.129639 51.5133 43.7876 29.0609 43.7876C24.8404 43.9473 20.7566 42.308 17.8518 39.2814C14.9556 36.196 13.4178 32.1018 13.5801 27.8982C13.5801 18.8774 19.8596 11.9248 29.0268 11.9248C34.6228 11.7987 39.8172 14.7916 42.4401 19.6593L42.7733 19.1549C44.9177 15.8677 47.2928 12.2779 50.0182 8.76371C44.5589 3.12256 36.9381 -0.00487563 29.0268 0.154859C12.982 -0.046911 0.218027 12.3115 0.51705 27.8982C0.218027 43.4934 13.0248 55.8518 29.0695 55.6416C61.4665 55.6416 63.1581 11.8827 85.4567 11.8827Z" fill="#050029"/>
</svg>
