<svg width="11" height="11" viewBox="0 0 11 11" fill="none" xmlns="http://www.w3.org/2000/svg">
<path d="M0 0.556109H11V3.60227H0V0.556109ZM10.2667 1.28138H0.73335V2.87698H10.2667V1.28138ZM8.65334 1.83743H7.92002V6.10352e-05H8.65334V1.83743ZM3.08 1.83743H2.34666V6.10352e-05H3.07999L3.08 1.83743ZM0 2.87698H11V11.0001H0V2.87698ZM10.2667 3.60226H0.73335V10.2748H10.2667V3.60226ZM5.01113 5.43963H4.08225V4.71434H5.01113V5.43963ZM6.91779 5.43963H5.9889V4.71434H6.91779V5.43963ZM8.77557 5.43963H7.84669V4.71434H8.77557V5.43963ZM5.01113 7.27697H4.08225V6.55171H5.01113V7.27697ZM3.15335 7.27697H2.22445V6.55171H3.15332L3.15335 7.27697ZM6.9178 7.27697H5.98892V6.55171H6.9178V7.27697ZM8.77558 7.27697H7.8467V6.55171H8.77558V7.27697ZM5.01112 9.16271H4.08224V8.43745H5.01112V9.16271ZM3.15334 9.16271H2.22445V8.43745H3.15332L3.15334 9.16271ZM6.91779 9.16271H5.9889V8.43745H6.91779V9.16271Z" fill="#050029"/>
</svg>
