<svg width="13" height="13" viewBox="0 0 13 13" fill="none" xmlns="http://www.w3.org/2000/svg">
<path d="M6.5411 1.26122e-05C10.1086 0.00161525 13 2.89369 13 6.46103C13 8.24378 12.2779 9.85789 11.1102 11.0269L11.1103 11.0268C9.93356 12.2442 8.28589 13 6.46172 13C2.89301 13 0 10.1073 0 6.53898C0 4.71571 0.755314 3.06883 1.97015 1.89411L1.97196 1.89237C3.13482 0.72342 4.74464 0 6.52343 0H6.54207H6.54111L6.5411 1.26122e-05ZM6.5411 12.0606C9.63398 12.0606 12.1412 9.55358 12.1412 6.46103C12.1412 3.36849 9.63398 0.861486 6.5411 0.861486C3.44822 0.861486 0.940949 3.36849 0.940949 6.46103C0.944546 9.55212 3.44966 12.057 6.54075 12.0606H6.5411ZM6.5411 5.4847C7.08037 5.4847 7.51755 5.92183 7.51755 6.46104C7.51755 7.00026 7.08037 7.43734 6.5411 7.43734C6.00182 7.43734 5.56465 7.00021 5.56465 6.46099C5.56465 5.92178 6.00182 5.48467 6.5411 5.48467V5.4847ZM6.5411 6.57588C6.60454 6.57588 6.65597 6.52447 6.65597 6.46104C6.65597 6.39762 6.60454 6.34617 6.5411 6.34617C6.47765 6.34617 6.42623 6.39761 6.42623 6.46104C6.42623 6.52448 6.47765 6.5759 6.5411 6.5759V6.57588ZM6.97188 5.91543H6.11031V2.07327H6.97188V5.91543ZM8.97645 9.50489L6.78234 7.31102L7.39118 6.70225L9.5853 8.89612L8.97645 9.50489Z" fill="#050029"/>
</svg>
