<svg width="106" height="98" viewBox="0 0 106 98" fill="none" xmlns="http://www.w3.org/2000/svg">
<path d="M100.279 97.0253L53.8084 81.3533C53.0306 81.0929 52.1902 81.0929 51.4158 81.3533L4.94503 97.0253C2.51766 97.8449 0 96.0391 0 93.4763V21.1101C0 9.4525 9.45251 0 21.1101 0H84.1141C95.7717 0 105.224 9.4525 105.224 21.1101V93.4763C105.224 96.0391 102.71 97.8449 100.279 97.0253Z" fill="white"/>
<path d="M20.3879 39.1921H24.5828L25.5274 41.6855H27.1769L23.3223 31.6565H21.7457L17.8633 41.6855H19.4399L20.3879 39.1921ZM21.9332 35.0875C22.02 34.8444 22.1068 34.5839 22.1971 34.3061C22.2874 34.0283 22.3742 33.7679 22.4541 33.5178C22.468 33.4762 22.4819 33.4345 22.4958 33.3963C22.4958 33.4067 22.5027 33.4136 22.5062 33.4275C22.593 33.6915 22.6868 33.9797 22.7944 34.2957C22.8986 34.6117 22.9924 34.8965 23.0722 35.1569C23.1521 35.4139 23.2077 35.5771 23.2354 35.6431L24.0168 37.7058H20.9539L21.7179 35.6986C21.7769 35.5354 21.8464 35.334 21.9332 35.0909V35.0875Z" fill="#010125"/>
<path d="M34.5563 40.3555L33.7402 39.3519C33.5388 39.602 33.3235 39.8103 33.0943 39.984C32.8651 40.1576 32.6289 40.2861 32.3859 40.3694C32.1428 40.4528 31.8927 40.4979 31.6323 40.4979C31.1913 40.4979 30.7919 40.3833 30.4273 40.1541C30.0627 39.9249 29.7744 39.6159 29.5522 39.2304C29.3334 38.8449 29.2223 38.4074 29.2223 37.9177C29.2223 37.4281 29.3265 36.9905 29.5383 36.5981C29.7467 36.2057 30.0314 35.9001 30.3926 35.6744C30.7503 35.4487 31.16 35.3376 31.6184 35.3376C31.8684 35.3376 32.1254 35.3897 32.3928 35.4938C32.6602 35.598 32.9137 35.7439 33.1533 35.9244C33.3929 36.105 33.5874 36.3064 33.7402 36.5252L34.5563 35.5216C34.268 35.0528 33.8513 34.6847 33.3026 34.4104C32.754 34.1395 32.1428 34.0006 31.476 34.0006C30.8093 34.0006 30.1564 34.1742 29.6078 34.518C29.0591 34.8618 28.625 35.3306 28.3055 35.921C27.986 36.5148 27.8263 37.1781 27.8263 37.9143C27.8263 38.6505 27.986 39.3137 28.3055 39.9076C28.625 40.5014 29.0591 40.9667 29.6078 41.3105C30.1564 41.6543 30.7815 41.8279 31.476 41.8279C32.0872 41.8279 32.6776 41.689 33.2471 41.4112C33.8166 41.1334 34.2541 40.7792 34.5597 40.3521L34.5563 40.3555Z" fill="#010125"/>
<path d="M37.1432 41.3139C37.6537 41.6577 38.2197 41.8313 38.8413 41.8313C39.206 41.8313 39.5497 41.7723 39.8796 41.6577C40.2095 41.5431 40.5117 41.3903 40.7825 41.1993C41.0534 41.0083 41.2791 40.7895 41.4562 40.5464C41.4562 40.5429 41.4597 40.5395 41.4632 40.536V41.6854H42.9529V34.1637H41.4632V35.3132C41.3104 35.0701 41.1228 34.8513 40.8971 34.6603C40.654 34.4554 40.3693 34.2957 40.0463 34.1811C39.7199 34.0665 39.3622 34.0074 38.9698 34.0074C38.31 34.0074 37.7162 34.1741 37.1849 34.5075C36.6536 34.8409 36.2334 35.3027 35.9243 35.8896C35.6153 36.4765 35.459 37.1467 35.459 37.9037C35.459 38.6608 35.6118 39.3171 35.9174 39.9109C36.223 40.5047 36.6327 40.9701 37.1432 41.3139ZM37.2578 36.598C37.4523 36.216 37.7197 35.9139 38.06 35.6951C38.4003 35.4764 38.7892 35.3652 39.2268 35.3652C39.6643 35.3652 40.0706 35.4764 40.4179 35.6951C40.7617 35.9139 41.0326 36.216 41.227 36.598C41.4215 36.98 41.5222 37.4141 41.5222 37.9003C41.5222 38.3864 41.425 38.8379 41.227 39.2268C41.0326 39.6123 40.7617 39.9179 40.4179 40.1366C40.0741 40.3554 39.6782 40.4665 39.2268 40.4665C38.7753 40.4665 38.3968 40.3554 38.06 40.1366C37.7197 39.9179 37.4523 39.6123 37.2578 39.2268C37.0633 38.8414 36.9626 38.3969 36.9626 37.9003C36.9626 37.4037 37.0599 36.98 37.2578 36.598Z" fill="#010125"/>
<path d="M46.3109 41.3209C46.8492 41.6612 47.4638 41.8279 48.1514 41.8279C48.4952 41.8279 48.8321 41.7688 49.162 41.6542C49.4919 41.5396 49.7836 41.3869 50.0371 41.1959C50.2593 41.0257 50.4434 40.8451 50.5892 40.6472V41.682H52.0651V31.0801H50.5892V35.091C50.4607 34.9416 50.3079 34.8027 50.1308 34.6708C49.853 34.4659 49.5405 34.3027 49.1932 34.1846C48.846 34.0665 48.4848 34.004 48.1098 34.004C47.4326 34.004 46.8249 34.1742 46.2901 34.511C45.7553 34.8514 45.3316 35.3132 45.0226 35.9001C44.7135 36.487 44.5573 37.1572 44.5573 37.9142C44.5573 38.6713 44.7135 39.3415 45.0295 39.9283C45.3455 40.5152 45.7727 40.9806 46.3109 41.3174V41.3209ZM46.3561 36.5634C46.5505 36.1675 46.8214 35.8549 47.1652 35.6258C47.509 35.3966 47.9049 35.282 48.3528 35.282C48.8008 35.282 49.1967 35.3966 49.544 35.6258C49.8912 35.8549 50.1586 36.1675 50.3531 36.5634C50.5475 36.9592 50.6482 37.4107 50.6482 37.9177C50.6482 38.4247 50.551 38.8761 50.3531 39.272C50.1586 39.6679 49.8877 39.9804 49.544 40.2096C49.2002 40.4388 48.8043 40.5534 48.3528 40.5534C47.9014 40.5534 47.509 40.4388 47.1652 40.2096C46.8214 39.9804 46.5505 39.6679 46.3561 39.272C46.1616 38.8761 46.0609 38.4247 46.0609 37.9177C46.0609 37.4107 46.1581 36.9592 46.3561 36.5634Z" fill="#010125"/>
<path d="M55.5552 41.3348C56.1525 41.6647 56.8366 41.828 57.611 41.828C57.9652 41.828 58.3264 41.7793 58.6945 41.6786C59.0626 41.5779 59.4098 41.4425 59.7397 41.2689C60.0696 41.0952 60.3474 40.8973 60.5766 40.6681L59.83 39.6228C59.4584 39.9493 59.1112 40.1715 58.7917 40.2965C58.4722 40.4215 58.1249 40.4841 57.7534 40.4841C57.229 40.4841 56.7637 40.3799 56.3643 40.168C55.9615 39.9597 55.6524 39.661 55.4337 39.2721C55.267 38.9804 55.1663 38.647 55.1246 38.2755H60.8787L60.8926 37.6434C60.9031 37.1191 60.8232 36.6329 60.6565 36.1884C60.4898 35.7439 60.2502 35.3584 59.9411 35.0355C59.6321 34.7125 59.264 34.4556 58.8438 34.268C58.4236 34.0805 57.9687 33.9902 57.4825 33.9902C56.9269 33.9902 56.4164 34.0875 55.9407 34.2854C55.4684 34.4799 55.0621 34.7577 54.7218 35.1154C54.3815 35.4731 54.1175 35.8967 53.9265 36.3829C53.7355 36.869 53.6383 37.4108 53.6383 38.0011C53.6383 38.7477 53.8085 39.4041 54.1488 39.9771C54.4891 40.55 54.9544 41.0015 55.5517 41.3314L55.5552 41.3348ZM56.1768 35.6467C56.531 35.4522 56.9651 35.3515 57.479 35.3515C57.8055 35.3515 58.1041 35.4244 58.3819 35.5668C58.6597 35.7092 58.8889 35.9071 59.0695 36.1537C59.2501 36.4037 59.3577 36.685 59.3855 36.9975V37.0982H55.1802C55.2253 36.8795 55.2878 36.6815 55.3746 36.5044C55.5552 36.1259 55.8226 35.8411 56.1768 35.6432V35.6467Z" fill="#010125"/>
<path d="M73.717 41.6855V37.1711C73.717 36.4731 73.6233 35.8897 73.4392 35.4243C73.2517 34.9555 72.9774 34.6083 72.6093 34.3791C72.2412 34.1499 71.7758 34.0353 71.2133 34.0353C70.9563 34.0353 70.6924 34.0769 70.425 34.1638C70.1576 34.2506 69.9041 34.3686 69.6645 34.5214C69.4249 34.6742 69.213 34.8479 69.0255 35.0458C68.8554 35.2264 68.7199 35.4139 68.6192 35.6153C68.5289 35.341 68.4109 35.0979 68.2615 34.8965C68.0497 34.6083 67.7823 34.3964 67.4594 34.2506C67.1329 34.1082 66.7579 34.0353 66.3273 34.0353C66.0321 34.0353 65.7404 34.0874 65.4591 34.1915C65.1778 34.2957 64.9139 34.4381 64.6708 34.6152C64.4277 34.7923 64.2229 34.9937 64.0562 35.2229C64.0214 35.2681 63.9937 35.3167 63.9624 35.3618V34.1638H62.4727V41.6855H63.9624V37.1572C63.9624 36.9106 64.011 36.6779 64.1048 36.4626C64.202 36.2473 64.334 36.0598 64.5076 35.9036C64.6813 35.7473 64.8792 35.6223 65.1084 35.532C65.3376 35.4417 65.5876 35.3965 65.855 35.3965C66.171 35.3965 66.4384 35.4695 66.6572 35.6119C66.876 35.7542 67.0426 35.9626 67.1572 36.2334C67.2718 36.5043 67.3309 36.8377 67.3309 37.2301V41.6855H68.8206V37.185C68.8206 36.928 68.8692 36.6918 68.963 36.4765C69.0568 36.2612 69.1922 36.0737 69.3658 35.9105C69.5395 35.7473 69.7409 35.6223 69.9735 35.532C70.2062 35.4417 70.4597 35.3965 70.7271 35.3965C71.0709 35.3965 71.3522 35.4625 71.571 35.598C71.7897 35.7334 71.9564 35.9348 72.0641 36.2057C72.1752 36.4765 72.2273 36.8307 72.2273 37.2579V41.6855H73.717Z" fill="#010125"/>
<path d="M76.6549 32.5004C76.9605 32.5004 77.2001 32.4136 77.3772 32.2434C77.5543 32.0698 77.6412 31.8475 77.6412 31.5697C77.6412 31.2745 77.5543 31.0453 77.3842 30.8821C77.2106 30.7189 76.9675 30.639 76.6549 30.639C76.3424 30.639 76.1063 30.7259 75.9326 30.896C75.7555 31.0696 75.6687 31.2919 75.6687 31.5697C75.6687 31.8649 75.7555 32.0941 75.9257 32.2573C76.0993 32.4205 76.3424 32.5004 76.6549 32.5004Z" fill="#010125"/>
<path d="M77.4153 34.1638H75.9395V41.6855H77.4153V34.1638Z" fill="#010125"/>
<path d="M85.1941 40.536V41.6854H86.6839V34.1637H85.1941V35.3132C85.0413 35.0701 84.8538 34.8513 84.6281 34.6603C84.385 34.4554 84.1002 34.2957 83.7773 34.1811C83.4509 34.0665 83.0932 34.0074 82.7008 34.0074C82.041 34.0074 81.4472 34.1741 80.9158 34.5075C80.3845 34.8409 79.9643 35.3027 79.6553 35.8896C79.3462 36.4765 79.1899 37.1467 79.1899 37.9037C79.1899 38.6608 79.3427 39.3171 79.6483 39.9109C79.9539 40.5047 80.3637 40.9701 80.8742 41.3139C81.3846 41.6577 81.9507 41.8313 82.5723 41.8313C82.9369 41.8313 83.2807 41.7723 83.6106 41.6577C83.9405 41.5431 84.2426 41.3903 84.5135 41.1993C84.7844 41.0083 85.0101 40.7895 85.1872 40.5464C85.1872 40.5429 85.1907 40.5395 85.1941 40.536ZM84.1489 40.1401C83.8051 40.3589 83.4092 40.47 82.9577 40.47C82.5063 40.47 82.1278 40.3589 81.7909 40.1401C81.4506 39.9213 81.1832 39.6157 80.9888 39.2303C80.7943 38.8448 80.6936 38.4003 80.6936 37.9037C80.6936 37.4072 80.7908 36.9835 80.9888 36.6015C81.1832 36.2195 81.4506 35.9174 81.7909 35.6986C82.1313 35.4798 82.5202 35.3687 82.9577 35.3687C83.3953 35.3687 83.8016 35.4798 84.1489 35.6986C84.4927 35.9174 84.7635 36.2195 84.958 36.6015C85.1525 36.9835 85.2532 37.4176 85.2532 37.9037C85.2532 38.3899 85.1559 38.8413 84.958 39.2303C84.7635 39.6157 84.4927 39.9213 84.1489 40.1401Z" fill="#010125"/>
<path d="M68.6122 48.6898C69.9526 48.7002 71.0465 47.6203 71.0534 46.2798V45.8978H68.6122V48.6864V48.6898Z" fill="#010125"/>
<path d="M37.9801 49.9051C36.6154 49.9051 35.5007 50.551 34.945 51.5373V50.1517H32.5038V59.816H34.9416V54.7668C34.9416 53.1312 35.9868 52.0339 37.4037 52.0339C38.8205 52.0339 39.5775 52.8777 39.5775 54.5307V59.8126H42.0396V54.3536C42.0396 51.5338 40.4943 49.8982 37.9801 49.8982V49.9051Z" fill="#010125"/>
<path d="M48.7036 57.8922C47.6966 57.8922 47.1792 57.2463 47.1792 56.024V52.2944H50.3948V50.1552H45.5331C46.4812 49.8323 47.1687 48.9398 47.1757 47.8806V47.4987H44.7344V50.1552H42.6682V52.2944H44.7344V56.0483C44.7344 58.7083 45.9915 60.0731 48.3842 60.0731C49.2627 60.0731 50.1969 59.8404 50.756 59.4792L50.2177 57.5172C49.7524 57.7672 49.235 57.8992 48.7071 57.8957L48.7036 57.8922Z" fill="#010125"/>
<path d="M59.1806 51.5061C58.5347 50.447 57.3853 49.9087 56.0344 49.9087C53.357 49.8531 51.2908 52.1694 51.329 54.9892C51.329 57.8437 53.3397 60.0696 56.0344 60.0696C57.3818 60.0696 58.5313 59.514 59.1806 58.4514V59.8161H61.6462V50.1518H59.1806V51.5026V51.5061ZM56.4338 57.9305C54.7982 57.9305 53.6835 56.656 53.6835 54.9857C53.6557 54.2148 53.9265 53.4612 54.437 52.8813C54.9475 52.3256 55.6767 52.0166 56.4303 52.0374C58.0277 52.0374 59.1806 53.2077 59.1806 54.9857C59.1806 56.7637 58.0312 57.9305 56.4303 57.9305H56.4338Z" fill="#010125"/>
<path d="M66.3482 45.8978H63.907V59.8161H66.3482V45.8978Z" fill="#010125"/>
<path d="M71.0569 50.1517H68.6122V59.8161H71.0569V50.1517Z" fill="#010125"/>
<path d="M78.7801 49.9051C77.4154 49.9051 76.3006 50.551 75.745 51.5373V50.1517H73.3003V59.816H75.7381V54.7668C75.7381 53.1312 76.7833 52.0339 78.2036 52.0339C79.624 52.0339 80.3775 52.8777 80.3775 54.5307V59.8126H82.8396V54.3536C82.8396 51.5338 81.2943 49.8982 78.7801 49.8982V49.9051Z" fill="#010125"/>
<path d="M89.764 54.9683L94.0944 50.1518H91.2017L87.4096 54.4475V45.8978H84.9648V59.8196H87.413V55.4719L91.417 59.8196H94.3271L89.764 54.9683Z" fill="#010125"/>
<path d="M26.201 49.9053C20.4295 49.9053 20.0857 57.9027 16.0366 57.9027C15.2761 57.9305 14.5399 57.6319 14.0156 57.0763C13.4947 56.5102 13.2169 55.7601 13.2446 54.9927C13.2446 53.3397 14.3767 52.0653 16.0297 52.0653C17.0402 52.0409 17.9744 52.5896 18.4466 53.4821L18.5057 53.3883C18.8911 52.7876 19.3217 52.1278 19.8114 51.4853C18.8286 50.4505 17.4535 49.881 16.0262 49.9087C13.1335 49.8705 10.8346 52.1347 10.8867 54.9892C10.8312 57.8472 13.1405 60.1079 16.0332 60.0697C21.8741 60.0697 22.1762 52.0548 26.1976 52.0548C27.8679 52.0548 29.0139 53.3328 29.0139 54.9823C29.0347 55.7532 28.7499 56.5033 28.2221 57.0658C27.1074 58.1667 25.312 58.1667 24.1973 57.0658C23.7042 56.5345 23.4299 55.8365 23.4264 55.1142C23.2458 55.3851 23.0618 55.6698 22.8742 55.9615C22.5339 56.4963 22.1658 57.0624 21.763 57.611C22.6971 59.1703 24.3918 60.1044 26.208 60.0662C29.1736 60.0662 31.344 57.875 31.344 54.9857C31.344 52.0965 29.1597 49.9053 26.1941 49.9053H26.201Z" fill="#010125"/>
</svg>
