<svg width="150" height="150" viewBox="0 0 150 150" fill="none" xmlns="http://www.w3.org/2000/svg">
<path d="M135.532 136.476L76.5213 116.575C75.5336 116.244 74.4664 116.244 73.4831 116.575L14.4726 136.476C11.3902 137.516 8.19321 135.223 8.19321 131.969V40.0753C8.19321 25.272 20.1964 13.2688 34.9997 13.2688H115.005C129.808 13.2688 141.811 25.272 141.811 40.0753V131.969C141.811 135.223 138.619 137.516 135.532 136.476Z" fill="#050029"/>
<path d="M34.0825 63.0366H39.4094L40.6088 66.2027H42.7034L37.8087 53.4675H35.8067L30.8766 66.2027H32.8786L34.0825 63.0366ZM36.0448 57.8243C36.155 57.5156 36.2653 57.1849 36.3799 56.8321C36.4946 56.4793 36.6048 56.1486 36.7063 55.8311C36.7239 55.7782 36.7415 55.7253 36.7592 55.6768C36.7592 55.69 36.768 55.6988 36.7724 55.7165C36.8826 56.0516 37.0017 56.4176 37.1384 56.8189C37.2707 57.2202 37.3898 57.5818 37.4912 57.9125C37.5926 58.2388 37.6632 58.4461 37.6984 58.5299L38.6906 61.1492H34.8013L35.7714 58.6004C35.8464 58.3932 35.9346 58.1374 36.0448 57.8287V57.8243Z" fill="white"/>
<path d="M52.074 64.5138L51.0377 63.2394C50.782 63.5569 50.5086 63.8215 50.2175 64.042C49.9265 64.2625 49.6266 64.4256 49.318 64.5315C49.0093 64.6373 48.6918 64.6946 48.3611 64.6946C47.801 64.6946 47.2939 64.5491 46.8309 64.2581C46.3679 63.967 46.0019 63.5746 45.7197 63.0851C45.4419 62.5956 45.3007 62.04 45.3007 61.4182C45.3007 60.7965 45.433 60.2408 45.702 59.7425C45.9666 59.2442 46.3282 58.8562 46.7868 58.5696C47.241 58.2829 47.7613 58.1418 48.3434 58.1418C48.6609 58.1418 48.9872 58.208 49.3268 58.3403C49.6663 58.4726 49.9882 58.6578 50.2925 58.8871C50.5968 59.1164 50.8437 59.3721 51.0377 59.6499L52.074 58.3755C51.708 57.7802 51.1789 57.3128 50.4821 56.9644C49.7854 56.6205 49.0093 56.4441 48.1626 56.4441C47.316 56.4441 46.4869 56.6646 45.7902 57.1011C45.0935 57.5377 44.5423 58.133 44.1366 58.8826C43.7309 59.6367 43.528 60.479 43.528 61.4138C43.528 62.3487 43.7309 63.1909 44.1366 63.945C44.5423 64.699 45.0935 65.2899 45.7902 65.7265C46.4869 66.163 47.2807 66.3835 48.1626 66.3835C48.9387 66.3835 49.6884 66.2071 50.4116 65.8544C51.1348 65.5016 51.6904 65.0518 52.0784 64.5094L52.074 64.5138Z" fill="white"/>
<path d="M55.3592 65.7309C56.0075 66.1674 56.7262 66.3879 57.5156 66.3879C57.9786 66.3879 58.4152 66.3129 58.8341 66.1674C59.253 66.0219 59.6366 65.8279 59.9806 65.5853C60.3246 65.3428 60.6112 65.065 60.8361 64.7563C60.8361 64.7519 60.8405 64.7475 60.8449 64.7431V66.2027H62.7367V56.6513H60.8449V58.1109C60.6509 57.8022 60.4128 57.5244 60.1261 57.2819C59.8174 57.0217 59.4558 56.8189 59.0457 56.6734C58.6312 56.5278 58.177 56.4529 57.6787 56.4529C56.8409 56.4529 56.0868 56.6645 55.4122 57.0879C54.7375 57.5112 54.2039 58.0977 53.8114 58.8429C53.419 59.5882 53.2206 60.4392 53.2206 61.4006C53.2206 62.3619 53.4146 63.1953 53.8026 63.9494C54.1907 64.7034 54.711 65.2943 55.3592 65.7309ZM55.5048 59.7425C55.7517 59.2574 56.0913 58.8738 56.5234 58.596C56.9556 58.3182 57.4494 58.1771 58.0051 58.1771C58.5607 58.1771 59.0766 58.3182 59.5176 58.596C59.9541 58.8738 60.2981 59.2574 60.545 59.7425C60.792 60.2276 60.9199 60.7788 60.9199 61.3961C60.9199 62.0135 60.7964 62.5868 60.545 63.0806C60.2981 63.5701 59.9541 63.9582 59.5176 64.236C59.081 64.5138 58.5783 64.6549 58.0051 64.6549C57.4318 64.6549 56.9511 64.5138 56.5234 64.236C56.0913 63.9582 55.7517 63.5701 55.5048 63.0806C55.2578 62.5912 55.1299 62.0267 55.1299 61.3961C55.1299 60.7656 55.2534 60.2276 55.5048 59.7425Z" fill="white"/>
<path d="M67.0008 65.7398C67.6843 66.1719 68.4648 66.3836 69.338 66.3836C69.7745 66.3836 70.2023 66.3086 70.6212 66.1631C71.0401 66.0176 71.4105 65.8236 71.7324 65.581C72.0146 65.3649 72.2483 65.1356 72.4336 64.8843V66.1984H74.3077V52.7356H72.4336V57.8288C72.2704 57.6392 72.0764 57.4628 71.8515 57.2952C71.4987 57.035 71.1018 56.8278 70.6609 56.6779C70.2199 56.5279 69.7613 56.4486 69.285 56.4486C68.4251 56.4486 67.6535 56.6646 66.9744 57.0924C66.2953 57.5245 65.7573 58.111 65.3648 58.8562C64.9724 59.6015 64.7739 60.4526 64.7739 61.4139C64.7739 62.3752 64.9724 63.2263 65.3736 63.9715C65.7749 64.7167 66.3173 65.3076 67.0008 65.7354V65.7398ZM67.0581 59.6985C67.3051 59.1958 67.649 58.7989 68.0856 58.5079C68.5222 58.2168 69.0249 58.0713 69.5937 58.0713C70.1626 58.0713 70.6653 58.2168 71.1062 58.5079C71.5472 58.7989 71.8868 59.1958 72.1337 59.6985C72.3806 60.2012 72.5085 60.7745 72.5085 61.4183C72.5085 62.0621 72.3851 62.6353 72.1337 63.1381C71.8868 63.6408 71.5428 64.0376 71.1062 64.3287C70.6697 64.6197 70.167 64.7652 69.5937 64.7652C69.0205 64.7652 68.5222 64.6197 68.0856 64.3287C67.649 64.0376 67.3051 63.6408 67.0581 63.1381C66.8112 62.6353 66.6833 62.0621 66.6833 61.4183C66.6833 60.7745 66.8068 60.2012 67.0581 59.6985Z" fill="white"/>
<path d="M78.7394 65.7574C79.4979 66.1763 80.3666 66.3836 81.35 66.3836C81.7997 66.3836 82.2584 66.3218 82.7258 66.194C83.1932 66.0661 83.6342 65.8941 84.0531 65.6736C84.472 65.4531 84.8248 65.2018 85.1158 64.9107L84.1677 63.5834C83.6959 63.9979 83.2549 64.2802 82.8493 64.4389C82.4436 64.5977 82.0026 64.677 81.5308 64.677C80.8649 64.677 80.274 64.5447 79.7669 64.2757C79.2554 64.0112 78.8629 63.6319 78.5851 63.138C78.3734 62.7676 78.2455 62.3443 78.1926 61.8725H85.4995L85.5171 61.0699C85.5303 60.404 85.4289 59.7867 85.2173 59.2222C85.0056 58.6578 84.7013 58.1683 84.3089 57.7582C83.9164 57.3481 83.449 57.0218 82.9154 56.7837C82.3818 56.5456 81.8042 56.4309 81.1868 56.4309C80.4812 56.4309 79.833 56.5544 79.2289 56.8057C78.6292 57.0527 78.1132 57.4055 77.6811 57.8597C77.2489 58.3138 76.9138 58.8518 76.6713 59.4692C76.4287 60.0865 76.3053 60.7745 76.3053 61.5241C76.3053 62.4722 76.5213 63.3056 76.9535 64.0332C77.3856 64.7608 77.9765 65.3341 78.735 65.753L78.7394 65.7574ZM79.5288 58.5343C79.9785 58.2874 80.5298 58.1595 81.1824 58.1595C81.5969 58.1595 81.9761 58.2521 82.3289 58.4329C82.6817 58.6137 82.9727 58.8651 83.202 59.1781C83.4313 59.4956 83.568 59.8528 83.6033 60.2497V60.3776H78.2632C78.3205 60.0998 78.3999 59.8484 78.5101 59.6235C78.7394 59.1429 79.079 58.7813 79.5288 58.5299V58.5343Z" fill="white"/>
<path d="M101.802 66.2028V60.4702C101.802 59.5839 101.683 58.8431 101.449 58.2522C101.211 57.6568 100.863 57.2159 100.395 56.9248C99.928 56.6338 99.3371 56.4883 98.6227 56.4883C98.2964 56.4883 97.9612 56.5412 97.6217 56.6514C97.2821 56.7617 96.9602 56.9116 96.656 57.1056C96.3517 57.2997 96.0827 57.5201 95.8446 57.7715C95.6285 58.0008 95.4565 58.2389 95.3286 58.4947C95.214 58.1463 95.0641 57.8376 94.8745 57.5819C94.6055 57.2159 94.2659 56.9469 93.8558 56.7617C93.4413 56.5809 92.9651 56.4883 92.4183 56.4883C92.0434 56.4883 91.673 56.5544 91.3158 56.6867C90.9586 56.819 90.6235 56.9998 90.3148 57.2247C90.0062 57.4496 89.746 57.7054 89.5343 57.9964C89.4902 58.0537 89.4549 58.1155 89.4153 58.1728V56.6514H87.5235V66.2028H89.4153V60.4526C89.4153 60.1395 89.477 59.8441 89.5961 59.5706C89.7195 59.2972 89.8871 59.0591 90.1076 58.8607C90.3281 58.6623 90.5794 58.5035 90.8705 58.3889C91.1615 58.2742 91.479 58.2169 91.8185 58.2169C92.2198 58.2169 92.5594 58.3095 92.8372 58.4903C93.115 58.6711 93.3267 58.9357 93.4722 59.2796C93.6177 59.6236 93.6927 60.0469 93.6927 60.5452V66.2028H95.5844V60.4879C95.5844 60.1615 95.6461 59.8617 95.7652 59.5883C95.8843 59.3149 96.0563 59.0768 96.2767 58.8695C96.4972 58.6623 96.753 58.5035 97.0484 58.3889C97.3439 58.2742 97.6658 58.2169 98.0053 58.2169C98.4419 58.2169 98.7991 58.3007 99.0769 58.4726C99.3547 58.6446 99.5664 58.9004 99.7031 59.2443C99.8442 59.5883 99.9103 60.0381 99.9103 60.5805V66.2028H101.802Z" fill="white"/>
<path d="M105.533 54.5391C105.921 54.5391 106.225 54.4289 106.45 54.2128C106.675 53.9923 106.785 53.7101 106.785 53.3573C106.785 52.9825 106.675 52.6915 106.459 52.4842C106.238 52.277 105.93 52.1755 105.533 52.1755C105.136 52.1755 104.836 52.2858 104.615 52.5019C104.391 52.7223 104.28 53.0046 104.28 53.3573C104.28 53.7322 104.391 54.0232 104.607 54.2305C104.827 54.4377 105.136 54.5391 105.533 54.5391Z" fill="white"/>
<path d="M106.498 56.6514H104.624V66.2028H106.498V56.6514Z" fill="white"/>
<path d="M116.376 64.7431V66.2027H118.268V56.6513H116.376V58.1109C116.182 57.8022 115.944 57.5244 115.657 57.2819C115.349 57.0217 114.987 56.8189 114.577 56.6734C114.162 56.5278 113.708 56.4529 113.21 56.4529C112.372 56.4529 111.618 56.6645 110.943 57.0879C110.269 57.5112 109.735 58.0977 109.343 58.8429C108.95 59.5882 108.752 60.4392 108.752 61.4006C108.752 62.3619 108.946 63.1953 109.334 63.9494C109.722 64.7034 110.242 65.2943 110.89 65.7309C111.539 66.1674 112.257 66.3879 113.047 66.3879C113.51 66.3879 113.946 66.3129 114.365 66.1674C114.784 66.0219 115.168 65.8279 115.512 65.5853C115.856 65.3428 116.142 65.065 116.367 64.7563C116.367 64.7519 116.372 64.7475 116.376 64.7431ZM115.049 64.2404C114.612 64.5182 114.11 64.6593 113.536 64.6593C112.963 64.6593 112.482 64.5182 112.055 64.2404C111.622 63.9626 111.283 63.5745 111.036 63.0851C110.789 62.5956 110.661 62.0311 110.661 61.4006C110.661 60.77 110.785 60.232 111.036 59.7469C111.283 59.2619 111.622 58.8782 112.055 58.6004C112.487 58.3226 112.981 58.1815 113.536 58.1815C114.092 58.1815 114.608 58.3226 115.049 58.6004C115.485 58.8782 115.829 59.2619 116.076 59.7469C116.323 60.232 116.451 60.7832 116.451 61.4006C116.451 62.0179 116.328 62.5912 116.076 63.0851C115.829 63.5745 115.485 63.9626 115.049 64.2404Z" fill="white"/>
<path d="M95.3199 75.0972C97.022 75.1104 98.411 73.739 98.4199 72.0368V71.5518H95.3199V75.0927V75.0972Z" fill="white"/>
<path d="M56.422 76.6405C54.689 76.6405 53.2735 77.4607 52.5679 78.7131V76.9536H49.4679V89.2258H52.5635V82.8141C52.5635 80.7371 53.8908 79.3437 55.69 79.3437C57.4891 79.3437 58.4504 80.4152 58.4504 82.5142V89.2214H61.5769V82.2893C61.5769 78.7087 59.6146 76.6317 56.422 76.6317V76.6405Z" fill="white"/>
<path d="M70.0391 86.7828C68.7603 86.7828 68.1033 85.9626 68.1033 84.4104V79.6744H72.1866V76.958H66.0131C67.2169 76.5479 68.09 75.4146 68.0988 74.0697V73.5846H64.9988V76.958H62.3751V79.6744H64.9988V84.4413C64.9988 87.8191 66.5951 89.5521 69.6334 89.5521C70.7491 89.5521 71.9353 89.2566 72.6452 88.798L71.9617 86.3066C71.3708 86.624 70.7138 86.7916 70.0435 86.7872L70.0391 86.7828Z" fill="white"/>
<path d="M83.3431 78.6734C82.5229 77.3284 81.0633 76.6449 79.348 76.6449C75.9481 76.5744 73.3243 79.5156 73.3728 83.0963C73.3728 86.7211 75.926 89.5477 79.348 89.5477C81.0589 89.5477 82.5185 88.8421 83.3431 87.4928V89.2258H86.474V76.9536H83.3431V78.669V78.6734ZM79.8551 86.8313C77.7781 86.8313 76.3626 85.2129 76.3626 83.0919C76.3273 82.1129 76.6713 81.156 77.3195 80.4196C77.9677 79.7141 78.8938 79.3216 79.8507 79.3481C81.8791 79.3481 83.3431 80.8341 83.3431 83.0919C83.3431 85.3496 81.8835 86.8313 79.8507 86.8313H79.8551Z" fill="white"/>
<path d="M92.4447 71.5518H89.3447V89.2258H92.4447V71.5518Z" fill="white"/>
<path d="M98.4243 76.9536H95.3199V89.2258H98.4243V76.9536Z" fill="white"/>
<path d="M108.231 76.6405C106.498 76.6405 105.083 77.4607 104.377 78.7131V76.9536H101.273V89.2258H104.369V82.8141C104.369 80.7371 105.696 79.3437 107.499 79.3437C109.303 79.3437 110.26 80.4152 110.26 82.5142V89.2214H113.386V82.2893C113.386 78.7087 111.424 76.6317 108.231 76.6317V76.6405Z" fill="white"/>
<path d="M122.179 83.0699L127.678 76.9536H124.005L119.19 82.4084V71.5518H116.085V89.2302H119.194V83.7093L124.278 89.2302H127.974L122.179 83.0699Z" fill="white"/>
<path d="M41.4643 76.6405C34.1354 76.6405 33.6988 86.796 28.5571 86.796C27.5914 86.8313 26.6566 86.4521 25.9907 85.7465C25.3292 85.0277 24.9765 84.0752 25.0118 83.1007C25.0118 81.0017 26.4493 79.3833 28.5483 79.3833C29.8315 79.3525 31.0177 80.0492 31.6175 81.1825L31.6924 81.0634C32.1819 80.3005 32.7287 79.4627 33.3505 78.6469C32.1025 77.3328 30.3563 76.6096 28.5439 76.6449C24.8706 76.5964 21.9514 79.4715 22.0176 83.0963C21.947 86.7255 24.8795 89.5962 28.5527 89.5477C35.9698 89.5477 36.3535 79.3701 41.4599 79.3701C43.581 79.3701 45.0362 80.9929 45.0362 83.0875C45.0626 84.0664 44.701 85.0189 44.0307 85.7333C42.6152 87.1312 40.3354 87.1312 38.9199 85.7333C38.2937 85.0586 37.9454 84.1723 37.941 83.255C37.7117 83.599 37.4779 83.9606 37.2398 84.331C36.8077 85.0101 36.3402 85.7289 35.8287 86.4256C37.0149 88.4056 39.1669 89.5918 41.4731 89.5433C45.239 89.5433 47.9951 86.7607 47.9951 83.0919C47.9951 79.423 45.2214 76.6405 41.4555 76.6405H41.4643Z" fill="white"/>
</svg>
