<svg width="26" height="14" viewBox="0 0 26 14" fill="none" xmlns="http://www.w3.org/2000/svg">
<path d="M19.4643 0.640503C12.1354 0.640503 11.6988 10.796 6.55714 10.796C5.59142 10.8313 4.65657 10.4521 3.9907 9.74651C3.32925 9.02773 2.97648 8.07524 3.01175 7.1007C3.01175 5.00168 4.44931 3.38333 6.54832 3.38333C7.83154 3.35246 9.01775 4.04919 9.61747 5.18248L9.69243 5.06342C10.1819 4.30054 10.7287 3.46271 11.3505 2.64691C10.1025 1.33283 8.3563 0.609633 6.54392 0.64491C2.87064 0.596404 -0.0485715 3.47152 0.0175739 7.09629C-0.0529812 10.7255 2.87946 13.5962 6.55273 13.5477C13.9698 13.5477 14.3535 3.3701 19.4599 3.3701C21.581 3.3701 23.0362 4.99286 23.0362 7.08747C23.0626 8.06642 22.701 9.01891 22.0307 9.73328C20.6152 11.1312 18.3354 11.1312 16.9199 9.73328C16.2937 9.0586 15.9454 8.17225 15.941 7.25504C15.7117 7.59899 15.4779 7.96059 15.2398 8.331C14.8077 9.01009 14.3402 9.72887 13.8287 10.4256C15.0149 12.4056 17.1669 13.5918 19.4731 13.5433C23.239 13.5433 25.9951 10.7607 25.9951 7.09187C25.9951 3.42301 23.2214 0.640503 19.4555 0.640503H19.4643Z" fill="white"/>
</svg>
