<svg width="49" height="49" viewBox="0 0 49 49" fill="none" xmlns="http://www.w3.org/2000/svg">
<path d="M11.4788 35.4888C15.3262 33.311 19.7725 32.0769 24.5001 32.0769C29.2277 32.0769 33.674 33.3201 37.5214 35.4888M30.1805 20.7162C30.1805 23.8558 27.6397 26.3966 24.5001 26.3966C21.3605 26.3966 18.8197 23.8558 18.8197 20.7162C18.8197 17.5766 21.3605 15.0358 24.5001 15.0358C27.6397 15.0358 30.1805 17.5766 30.1805 20.7162ZM41.5412 24.5001C41.5412 33.9099 33.9099 41.5412 24.5001 41.5412C15.0903 41.5412 7.45898 33.9099 7.45898 24.5001C7.45898 15.0903 15.0903 7.45898 24.5001 7.45898C33.9099 7.45898 41.5412 15.0903 41.5412 24.5001Z" stroke="url(#paint0_linear_75_395)" stroke-width="4" stroke-linecap="round" stroke-linejoin="round"/>
<defs>
<linearGradient id="paint0_linear_75_395" x1="5.64417" y1="24.5001" x2="43.356" y2="24.5001" gradientUnits="userSpaceOnUse">
<stop stop-color="#11EFF9"/>
<stop offset="1" stop-color="#2761AD"/>
</linearGradient>
</defs>
</svg>
