<svg width="49" height="49" viewBox="0 0 49 49" fill="none" xmlns="http://www.w3.org/2000/svg">
<path d="M30.3981 10.7347H34.3272C36.4959 10.7347 38.2562 12.4951 38.2562 14.6638V38.2564C38.2562 40.4251 36.4959 42.1855 34.3272 42.1855H14.6727C12.504 42.1855 10.7437 40.4251 10.7437 38.2564V14.6729C10.7437 12.5042 12.504 10.7438 14.6727 10.7438H18.6018M18.6018 28.4383L22.5309 32.3673L30.3981 24.5001M30.3981 12.8581V8.62048C30.3981 7.62233 29.5814 6.80566 28.5833 6.80566H20.4166C19.4185 6.80566 18.6018 7.62233 18.6018 8.62048V12.8581C18.6018 13.8562 19.4185 14.6729 20.4166 14.6729H28.5833C29.5814 14.6729 30.3981 13.8562 30.3981 12.8581Z" stroke="url(#paint0_linear_75_397)" stroke-width="4" stroke-linecap="round" stroke-linejoin="round"/>
<defs>
<linearGradient id="paint0_linear_75_397" x1="8.91976" y1="24.5001" x2="40.0801" y2="24.5001" gradientUnits="userSpaceOnUse">
<stop stop-color="#11EFF9"/>
<stop offset="1" stop-color="#2761AD"/>
</linearGradient>
</defs>
</svg>
