<svg width="39" height="39" viewBox="0 0 39 39" fill="none" xmlns="http://www.w3.org/2000/svg">
<path d="M5.81384 9.2373C5.81384 7.34508 7.34495 5.81396 9.23718 5.81396H12.6605C14.5527 5.81396 16.0838 7.34508 16.0838 9.2373V12.6606C16.0838 14.5529 14.5527 16.084 12.6605 16.084H9.23718C7.34495 16.084 5.81384 14.5529 5.81384 12.6606V9.2373V9.2373ZM22.9161 9.2373C22.9161 7.34508 24.4472 5.81396 26.3394 5.81396H29.7627C31.655 5.81396 33.1861 7.34508 33.1861 9.2373V12.6606C33.1861 14.5529 31.655 16.084 29.7627 16.084H26.3394C24.4472 16.084 22.9161 14.5529 22.9161 12.6606V9.2373V9.2373ZM5.81384 26.3395C5.81384 24.4473 7.34495 22.9162 9.23718 22.9162H12.6605C14.5527 22.9162 16.0838 24.4473 16.0838 26.3395V29.7629C16.0838 31.6551 14.5527 33.1862 12.6605 33.1862H9.23718C7.34495 33.1862 5.81384 31.6551 5.81384 29.7629V26.3395ZM22.9161 26.3395C22.9161 24.4473 24.4472 22.9162 26.3394 22.9162H29.7627C31.655 22.9162 33.1861 24.4473 33.1861 26.3395V29.7629C33.1861 31.6551 31.655 33.1862 29.7627 33.1862H26.3394C24.4472 33.1862 22.9161 31.6551 22.9161 29.7629V26.3395V26.3395Z" stroke="url(#paint0_linear_75_226)" stroke-width="4" stroke-linecap="round" stroke-linejoin="round"/>
<defs>
<linearGradient id="paint0_linear_75_226" x1="4.3694" y1="19.5001" x2="34.6305" y2="19.5001" gradientUnits="userSpaceOnUse">
<stop stop-color="#11EFF9"/>
<stop offset="1" stop-color="#2761AD"/>
</linearGradient>
</defs>
</svg>
