<svg width="49" height="49" viewBox="0 0 49 49" fill="none" xmlns="http://www.w3.org/2000/svg">
<path d="M41.5412 28.7649C36.2782 30.8973 30.5253 32.0679 24.5001 32.0679C18.4749 32.0679 12.7219 30.8973 7.45898 28.7649M32.0679 15.0268V11.2429C32.0679 9.15584 30.371 7.45898 28.284 7.45898H20.7071C18.611 7.45898 16.9232 9.15584 16.9232 11.2429V15.0268M24.5001 26.3875H24.5182M11.2519 41.5321H37.7573C39.8534 41.5321 41.5412 39.8353 41.5412 37.7482V18.8197C41.5412 16.7236 39.8444 15.0358 37.7573 15.0358H11.2519C9.15584 15.0358 7.46806 16.7327 7.46806 18.8197V37.7482C7.46806 39.8444 9.16491 41.5321 11.2519 41.5321V41.5321Z" stroke="url(#paint0_linear_75_399)" stroke-width="4" stroke-linecap="round" stroke-linejoin="round"/>
<defs>
<linearGradient id="paint0_linear_75_399" x1="5.64417" y1="24.5001" x2="43.356" y2="24.5001" gradientUnits="userSpaceOnUse">
<stop stop-color="#11EFF9"/>
<stop offset="1" stop-color="#2761AD"/>
</linearGradient>
</defs>
</svg>
