<svg width="49" height="49" viewBox="0 0 49 49" fill="none" xmlns="http://www.w3.org/2000/svg">
<path d="M20.0719 33.9644H28.9191M24.5 7.45898V9.35547M36.5504 12.4497L35.2074 13.7927M41.5321 24.5001H39.6356M9.34631 24.5001H7.44983M13.7745 13.7927L12.4315 12.4497M17.7852 31.1877C14.0921 27.4945 14.0921 21.4966 17.7852 17.8034C21.4783 14.1103 27.4763 14.1103 31.1695 17.8034C34.8626 21.4966 34.8626 27.4945 31.1695 31.1877L30.135 32.2221C28.9372 33.4199 28.2658 35.0442 28.2658 36.741V37.7482C28.2658 39.8444 26.5689 41.5321 24.4819 41.5321C22.3948 41.5321 20.698 39.8353 20.698 37.7482V36.741C20.698 35.0442 20.0265 33.4199 18.8287 32.2221L17.7943 31.1877H17.7852Z" stroke="url(#paint0_linear_75_393)" stroke-width="4" stroke-linecap="round" stroke-linejoin="round"/>
<defs>
<linearGradient id="paint0_linear_75_393" x1="5.64409" y1="24.5001" x2="43.3559" y2="24.5001" gradientUnits="userSpaceOnUse">
<stop stop-color="#11EFF9"/>
<stop offset="1" stop-color="#2761AD"/>
</linearGradient>
</defs>
</svg>
